<svg id="Layer_1" data-name="Layer 1" xmlns="http://www.w3.org/2000/svg" viewBox="0 0 42 42"><title>Direct Routing Gateway DRG</title><circle cx="21" cy="21" r="20.5" fill="#fff"/><path d="M21,1A20,20,0,1,1,1,21,20,20,0,0,1,21,1m0-1A21,21,0,1,0,42,21,21,21,0,0,0,21,0Z" fill="#fff"/><path d="M21,1A20,20,0,1,0,41,21,20,20,0,0,0,21,1Zm0,38.33A18.33,18.33,0,1,1,39.33,21,18.35,18.35,0,0,1,21,39.33Z" fill="#2c5967"/><polygon points="21.83 32.74 21.83 9.47 24.37 12.01 25.55 10.83 21 6.28 16.45 10.83 17.63 12.01 20.17 9.47 20.17 32.74 17.63 30.2 16.45 31.38 21 35.93 25.55 31.38 24.37 30.2 21.83 32.74" fill="#2c5967"/><polygon points="15.55 16.45 14.37 17.63 16.91 20.17 6.21 20.17 6.21 21.83 16.91 21.83 14.37 24.37 15.55 25.55 20.09 21 15.55 16.45" fill="#2c5967"/><polygon points="25.09 20.17 27.63 17.63 26.45 16.45 21.91 21 26.45 25.55 27.63 24.37 25.09 21.83 35.79 21.83 35.79 20.17 25.09 20.17" fill="#2c5967"/></svg>
