<svg xmlns="http://www.w3.org/2000/svg" viewBox="0 0 18 18"><desc>Planton-drawn glyph: a Front Door secret: a locked sheet referenced by the door</desc><path d="M2 15V9a3 3 0 0 1 3-3h2a3 3 0 0 1 3 3V15" fill="none" stroke="#0078d4" stroke-width="1.6"/><path d="M1 15h10" fill="none" stroke="#0078d4" stroke-width="1.6" stroke-linecap="round"/><path d="M10 3.8a.8.8 0 0 1 .8-.8h2.7l3 3v6.2a.8.8 0 0 1-.8.8h-1.5999999999999996H10.8a.8.8 0 0 1-.8-.8z" fill="#0078d4"/><path d="M13.5 3v3h3" fill="#50e6ff"/><rect x="11.7" y="8.5" width="3" height="2.6" rx=".4" fill="#50e6ff"/><path d="M12.4 8.5v-.8a.8.8 0 0 1 1.6 0v.8" fill="none" stroke="#50e6ff" stroke-width=".7"/></svg>
