<svg xmlns="http://www.w3.org/2000/svg" viewBox="0 5.440000057220459 198.32000732421875 40.95000076293945" data-asc="0.75" width="198.32000732421875" height="40.95000076293945"><defs/><g fill="#7a4183"><g transform="translate(0, 0)"><path d="M28.25 21.34Q28.25 25.17 27.34 28.25Q26.44 31.32 24.65 33.48Q22.85 35.64 20.14 36.80Q17.43 37.96 13.82 37.96Q10.25 37.96 7.65 36.90Q5.05 35.84 3.36 33.81Q1.66 31.79 0.83 28.78Q0 25.78 0 21.88Q0 18.14 0.90 15.09Q1.81 12.04 3.61 9.90Q5.42 7.76 8.13 6.60Q10.84 5.44 14.45 5.44Q17.94 5.44 20.53 6.49Q23.12 7.54 24.84 9.56Q26.56 11.57 27.40 14.54Q28.25 17.50 28.25 21.34M23.83 21.63Q23.83 18.95 23.35 16.64Q22.88 14.33 21.77 12.63Q20.65 10.94 18.80 9.99Q16.94 9.03 14.21 9.03Q11.47 9.03 9.62 10.06Q7.76 11.08 6.60 12.79Q5.44 14.50 4.94 16.78Q4.44 19.07 4.44 21.58Q4.44 24.37 4.91 26.71Q5.37 29.05 6.47 30.75Q7.57 32.45 9.41 33.39Q11.25 34.33 14.04 34.33Q16.80 34.33 18.68 33.30Q20.56 32.28 21.70 30.53Q22.85 28.78 23.34 26.49Q23.83 24.19 23.83 21.63ZM54.64 25.56Q54.64 28.44 54.02 30.74Q53.39 33.03 52.19 34.63Q50.98 36.23 49.19 37.10Q47.41 37.96 45.12 37.96Q44.14 37.96 43.31 37.77Q42.48 37.57 41.69 37.16Q40.89 36.74 40.11 36.11Q39.33 35.47 38.45 34.62L38.45 45.61Q38.45 45.80 38.35 45.95Q38.26 46.09 38.04 46.19Q37.82 46.29 37.43 46.34Q37.04 46.39 36.43 46.39Q35.84 46.39 35.45 46.34Q35.06 46.29 34.83 46.19Q34.59 46.09 34.51 45.95Q34.42 45.80 34.42 45.61L34.42 14.92Q34.42 14.70 34.50 14.56Q34.57 14.43 34.79 14.33Q35.01 14.23 35.35 14.20Q35.69 14.16 36.18 14.16Q36.69 14.16 37.02 14.20Q37.35 14.23 37.57 14.33Q37.79 14.43 37.88 14.56Q37.96 14.70 37.96 14.92L37.96 17.87Q38.96 16.85 39.89 16.09Q40.82 15.33 41.76 14.83Q42.70 14.33 43.69 14.07Q44.68 13.82 45.78 13.82Q48.17 13.82 49.85 14.75Q51.54 15.67 52.60 17.29Q53.66 18.90 54.15 21.03Q54.64 23.17 54.64 25.56M50.39 26.03Q50.39 24.34 50.13 22.77Q49.88 21.19 49.26 19.97Q48.63 18.75 47.58 18.02Q46.53 17.29 44.97 17.29Q44.19 17.29 43.43 17.52Q42.68 17.75 41.89 18.25Q41.11 18.75 40.26 19.57Q39.40 20.39 38.45 21.58L38.45 30.32Q40.11 32.35 41.60 33.42Q43.09 34.50 44.73 34.50Q46.24 34.50 47.33 33.76Q48.41 33.03 49.08 31.81Q49.76 30.59 50.07 29.08Q50.39 27.56 50.39 26.03ZM79.44 24.95Q79.44 25.90 78.97 26.31Q78.49 26.71 77.88 26.71L63.48 26.71Q63.48 28.54 63.84 30.00Q64.21 31.47 65.06 32.52Q65.92 33.57 67.29 34.13Q68.65 34.69 70.63 34.69Q72.19 34.69 73.41 34.44Q74.63 34.18 75.52 33.86Q76.42 33.54 76.99 33.29Q77.56 33.03 77.86 33.03Q78.03 33.03 78.16 33.12Q78.30 33.20 78.37 33.37Q78.44 33.54 78.48 33.85Q78.52 34.16 78.52 34.59Q78.52 34.91 78.49 35.14Q78.47 35.38 78.43 35.56Q78.39 35.74 78.31 35.89Q78.22 36.04 78.09 36.17Q77.95 36.30 77.29 36.61Q76.64 36.91 75.59 37.21Q74.54 37.50 73.16 37.73Q71.78 37.96 70.21 37.96Q67.50 37.96 65.47 37.21Q63.43 36.45 62.04 34.96Q60.64 33.47 59.94 31.23Q59.23 28.98 59.23 26.00Q59.23 23.17 59.96 20.91Q60.69 18.65 62.07 17.08Q63.45 15.50 65.41 14.66Q67.36 13.82 69.78 13.82Q72.36 13.82 74.18 14.65Q76.00 15.48 77.17 16.88Q78.34 18.29 78.89 20.18Q79.44 22.07 79.44 24.22L79.44 24.95M75.39 23.75Q75.46 20.58 73.99 18.77Q72.51 16.97 69.60 16.97Q68.12 16.97 66.99 17.53Q65.87 18.09 65.11 19.02Q64.36 19.95 63.94 21.18Q63.53 22.41 63.48 23.75L75.39 23.75ZM104.49 36.89Q104.49 37.08 104.39 37.22Q104.30 37.35 104.08 37.45Q103.86 37.55 103.47 37.60Q103.08 37.65 102.49 37.65Q101.88 37.65 101.49 37.60Q101.10 37.55 100.88 37.45Q100.66 37.35 100.56 37.22Q100.46 37.08 100.46 36.89L100.46 24.02Q100.46 22.14 100.17 21.00Q99.88 19.85 99.32 19.02Q98.75 18.19 97.86 17.75Q96.97 17.31 95.80 17.31Q94.29 17.31 92.77 18.38Q91.26 19.46 89.60 21.53L89.60 36.89Q89.60 37.08 89.50 37.22Q89.40 37.35 89.18 37.45Q88.96 37.55 88.57 37.60Q88.18 37.65 87.57 37.65Q86.99 37.65 86.60 37.60Q86.21 37.55 85.97 37.45Q85.74 37.35 85.66 37.22Q85.57 37.08 85.57 36.89L85.57 14.92Q85.57 14.72 85.64 14.59Q85.72 14.45 85.94 14.34Q86.16 14.23 86.50 14.20Q86.84 14.16 87.40 14.16Q87.94 14.16 88.29 14.20Q88.65 14.23 88.84 14.34Q89.04 14.45 89.12 14.59Q89.21 14.72 89.21 14.92L89.21 17.82Q91.06 15.75 92.91 14.78Q94.75 13.82 96.63 13.82Q98.83 13.82 100.33 14.56Q101.83 15.31 102.76 16.55Q103.69 17.80 104.09 19.47Q104.49 21.14 104.49 23.49L104.49 36.89ZM146.66 36.87Q146.66 37.06 146.56 37.21Q146.46 37.35 146.22 37.44Q145.97 37.52 145.59 37.59Q145.21 37.65 144.60 37.65Q144.04 37.65 143.64 37.59Q143.24 37.52 143.01 37.44Q142.77 37.35 142.68 37.21Q142.58 37.06 142.58 36.87L142.58 9.35L142.53 9.35L131.27 36.99Q131.20 37.16 131.07 37.28Q130.93 37.40 130.68 37.49Q130.42 37.57 130.07 37.61Q129.71 37.65 129.22 37.65Q128.71 37.65 128.34 37.60Q127.98 37.55 127.73 37.46Q127.49 37.38 127.36 37.26Q127.22 37.13 127.17 36.99L116.41 9.35L116.38 9.35L116.38 36.87Q116.38 37.06 116.28 37.21Q116.19 37.35 115.94 37.44Q115.70 37.52 115.31 37.59Q114.92 37.65 114.31 37.65Q113.72 37.65 113.33 37.59Q112.94 37.52 112.71 37.44Q112.48 37.35 112.39 37.21Q112.30 37.06 112.30 36.87L112.30 7.81Q112.30 6.79 112.84 6.35Q113.38 5.91 114.04 5.91L116.58 5.91Q117.36 5.91 117.94 6.05Q118.53 6.20 118.97 6.52Q119.41 6.84 119.70 7.32Q120.00 7.81 120.21 8.47L129.37 31.35L129.49 31.35L139.01 8.54Q139.28 7.81 139.60 7.30Q139.92 6.79 140.30 6.48Q140.67 6.18 141.14 6.04Q141.60 5.91 142.21 5.91L144.87 5.91Q145.24 5.91 145.57 6.02Q145.90 6.13 146.13 6.36Q146.36 6.59 146.51 6.95Q146.66 7.30 146.66 7.81L146.66 36.87ZM176.15 33.03Q176.15 33.42 176.12 33.72Q176.10 34.01 176.04 34.23Q175.98 34.45 175.88 34.62Q175.78 34.79 175.54 35.03Q175.29 35.28 174.51 35.78Q173.73 36.28 172.57 36.76Q171.41 37.23 169.91 37.56Q168.41 37.89 166.63 37.89Q163.55 37.89 161.07 36.87Q158.59 35.84 156.85 33.84Q155.10 31.84 154.16 28.89Q153.22 25.95 153.22 22.12Q153.22 18.19 154.24 15.11Q155.25 12.04 157.08 9.90Q158.91 7.76 161.46 6.64Q164.01 5.52 167.11 5.52Q168.48 5.52 169.78 5.77Q171.07 6.03 172.17 6.42Q173.27 6.81 174.12 7.32Q174.98 7.84 175.31 8.17Q175.63 8.50 175.73 8.67Q175.83 8.84 175.89 9.07Q175.95 9.30 175.99 9.62Q176.03 9.94 176.03 10.38Q176.03 10.86 175.98 11.21Q175.93 11.55 175.83 11.78Q175.73 12.01 175.60 12.12Q175.46 12.23 175.27 12.23Q174.93 12.23 174.32 11.76Q173.71 11.28 172.74 10.71Q171.78 10.13 170.40 9.66Q169.02 9.18 167.09 9.18Q164.99 9.18 163.27 10.02Q161.55 10.86 160.33 12.50Q159.11 14.14 158.44 16.49Q157.76 18.85 157.76 21.88Q157.76 24.88 158.41 27.19Q159.06 29.49 160.27 31.04Q161.47 32.59 163.23 33.39Q164.99 34.18 167.21 34.18Q169.09 34.18 170.50 33.72Q171.90 33.25 172.89 32.68Q173.88 32.10 174.51 31.64Q175.15 31.18 175.51 31.18Q175.68 31.18 175.81 31.25Q175.93 31.32 176.00 31.53Q176.07 31.74 176.11 32.10Q176.15 32.47 176.15 33.03ZM198.32 7.71Q198.32 8.18 198.27 8.52Q198.22 8.86 198.10 9.07Q197.97 9.28 197.81 9.38Q197.66 9.47 197.49 9.47L185.91 9.47L185.91 20.21L196.85 20.21Q197.02 20.21 197.18 20.30Q197.34 20.39 197.46 20.58Q197.58 20.78 197.63 21.11Q197.68 21.44 197.68 21.95Q197.68 22.41 197.63 22.74Q197.58 23.07 197.46 23.28Q197.34 23.49 197.18 23.60Q197.02 23.71 196.85 23.71L185.91 23.71L185.91 36.87Q185.91 37.04 185.82 37.19Q185.72 37.35 185.47 37.44Q185.23 37.52 184.84 37.59Q184.45 37.65 183.81 37.65Q183.23 37.65 182.81 37.59Q182.40 37.52 182.15 37.44Q181.91 37.35 181.81 37.19Q181.71 37.04 181.71 36.87L181.71 7.62Q181.71 6.67 182.21 6.29Q182.71 5.91 183.28 5.91L197.49 5.91Q197.66 5.91 197.81 6.01Q197.97 6.10 198.10 6.32Q198.22 6.54 198.27 6.90Q198.32 7.25 198.32 7.71Z"/></g></g></svg>