<svg width="64" height="64" viewBox="0 0 64 64" fill="none" xmlns="http://www.w3.org/2000/svg">
<path d="M0 16C0 7.16344 7.16344 0 16 0H48C56.8366 0 64 7.16344 64 16V48C64 56.8366 56.8366 64 48 64H16C7.16344 64 0 56.8366 0 48V16Z" fill="#D50C2D"/>
<path fill-rule="evenodd" clip-rule="evenodd" d="M48 2H16C8.26801 2 2 8.26801 2 16V48C2 55.732 8.26801 62 16 62H48C55.732 62 62 55.732 62 48V16C62 8.26801 55.732 2 48 2ZM16 0C7.16344 0 0 7.16344 0 16V48C0 56.8366 7.16344 64 16 64H48C56.8366 64 64 56.8366 64 48V16C64 7.16344 56.8366 0 48 0H16Z" fill="#D50C2D"/>
<path d="M24 29V20A8 8 0 0 1 40 20V29" stroke="white" stroke-width="3.5" fill="none"/>
<rect x="19" y="29" width="26" height="22" rx="3" fill="white"/>
<circle cx="32" cy="37" r="3" fill="#D50C2D"/>
<rect x="30.5" y="38.5" width="3" height="6" rx="1.5" fill="#D50C2D"/>
</svg>
